<?xml version="1.0" encoding="UTF-8" standalone="no"?>
<!-- Created with Inkscape (http://www.inkscape.org/) -->

<svg
   xmlns:dc="http://purl.org/dc/elements/1.1/"
   xmlns:cc="http://creativecommons.org/ns#"
   xmlns:rdf="http://www.w3.org/1999/02/22-rdf-syntax-ns#"
   xmlns:svg="http://www.w3.org/2000/svg"
   xmlns="http://www.w3.org/2000/svg"
   xmlns:xlink="http://www.w3.org/1999/xlink"
   xmlns:sodipodi="http://sodipodi.sourceforge.net/DTD/sodipodi-0.dtd"
   xmlns:inkscape="http://www.inkscape.org/namespaces/inkscape"
   width="175.65588mm"
   height="132.62056mm"
   viewBox="0 0 175.65588 132.62056"
   version="1.1"
   id="svg8"
   inkscape:version="0.92.0 r15299"
   sodipodi:docname="icon.svg">
  <defs
     id="defs2">
    <linearGradient
       inkscape:collect="always"
       id="linearGradient4533">
      <stop
         style="stop-color:#11a4db;stop-opacity:1"
         offset="0"
         id="stop4529" />
      <stop
         style="stop-color:#0c81b2;stop-opacity:1"
         offset="1"
         id="stop4531" />
    </linearGradient>
    <linearGradient
       inkscape:collect="always"
       xlink:href="#linearGradient4533"
       id="linearGradient4535"
       x1="111.69196"
       y1="84.010414"
       x2="111.69196"
       y2="180.20535"
       gradientUnits="userSpaceOnUse" />
  </defs>
  <sodipodi:namedview
     id="base"
     pagecolor="#ffffff"
     bordercolor="#666666"
     borderopacity="1.0"
     inkscape:pageopacity="0.0"
     inkscape:pageshadow="2"
     inkscape:zoom="0.49497475"
     inkscape:cx="-165.64413"
     inkscape:cy="197.64424"
     inkscape:document-units="mm"
     inkscape:current-layer="layer1"
     showgrid="false"
     fit-margin-top="0"
     fit-margin-left="0"
     fit-margin-right="0"
     fit-margin-bottom="0"
     inkscape:window-width="1920"
     inkscape:window-height="1017"
     inkscape:window-x="-8"
     inkscape:window-y="-8"
     inkscape:window-maximized="1" />
  <metadata
     id="metadata5">
    <rdf:RDF>
      <cc:Work
         rdf:about="">
        <dc:format>image/svg+xml</dc:format>
        <dc:type
           rdf:resource="http://purl.org/dc/dcmitype/StillImage" />
        <dc:title></dc:title>
      </cc:Work>
    </rdf:RDF>
  </metadata>
  <g
     inkscape:label="Layer 1"
     inkscape:groupmode="layer"
     id="layer1"
     transform="translate(-21.773503,-63.63702)">
    <path
       style="fill:url(#linearGradient4535);fill-opacity:1;stroke-width:0.35277778"
       d="m 55.285318,196.15945 c -0.09701,-0.098 -1.078652,-0.28142 -2.181417,-0.40764 -4.369997,-0.5002 -10.712413,-3.21147 -14.961427,-6.39573 -10.269162,-7.69585 -16.375901,-20.37849 -16.368965,-33.99552 0.0063,-12.43557 4.377804,-23.20686 12.637582,-31.13897 4.517636,-4.33842 9.18297,-7.14865 14.524227,-8.74888 l 2.293055,-0.687 0.01866,-5.03739 c 0.02068,-5.58554 0.447254,-7.77647 2.389162,-12.271105 3.687821,-8.535641 11.005663,-14.457185 19.624405,-15.879931 4.7114,-0.777738 10.172682,0.226868 14.669029,2.698369 l 2.2398,1.231148 1.211333,-2.621773 C 96.54076,71.73688 106.50756,65.485561 121.55672,63.978231 c 20.09533,-2.012756 35.47659,4.938065 42.69272,19.292916 2.14141,4.259848 3.90537,11.267768 3.93144,15.61894 l 0.01,1.587503 3.43149,1.66948 c 4.31667,2.10014 7.50438,4.45992 11.54539,8.54674 7.12533,7.20611 11.77161,16.55643 13.6244,27.41815 0.98003,5.74532 0.81283,14.428 -0.38581,20.03436 -3.84055,17.96332 -16.0859,31.95928 -31.93582,36.50141 -9.49371,2.72063 -20.04217,1.75425 -28.78984,-2.63753 -2.40262,-1.20623 -7.93373,-4.76376 -8.28156,-5.32657 -0.11471,-0.1856 -0.87618,0.27794 -1.69216,1.03008 -6.16965,5.68699 -14.94755,8.88276 -23.14894,8.42784 -6.968154,-0.38652 -13.905522,-3.11097 -19.004713,-7.46356 l -1.850238,-1.57934 -2.537104,1.89966 c -4.392602,3.28897 -8.297407,5.14277 -13.473218,6.39642 -2.123408,0.51431 -10.076236,1.0987 -10.406944,0.76472 z m 23.364225,-41.24613 c 2.245875,-0.96615 4.965559,-3.95012 5.74838,-6.30698 0.798484,-2.404 0.593781,-5.94768 -0.469826,-8.13338 -3.277803,-6.73585 -12.213523,-8.24723 -17.436257,-2.94914 -1.897027,1.9244 -2.871579,4.15242 -3.032679,6.93331 -0.182301,3.14685 0.602382,5.42176 2.659229,7.70947 3.325604,3.69887 7.957668,4.71418 12.531153,2.74672 z m 33.564417,0.59449 c 5.00773,-1.30435 8.18298,-5.4332 8.13661,-10.58022 -0.0263,-2.91593 -0.84572,-5.02237 -2.79178,-7.17643 -4.13542,-4.57741 -11.75597,-4.57741 -15.89139,0 -1.94606,2.15406 -2.76551,4.2605 -2.791777,7.17643 -0.04657,5.16833 3.020047,9.22654 7.980957,10.56159 2.42999,0.65394 2.91181,0.65562 5.35738,0.0186 z m 37.51089,-0.7284 c 6.51109,-3.16275 8.1391,-11.52349 3.27927,-16.84092 -2.30956,-2.52703 -4.61271,-3.56486 -7.93686,-3.57647 -7.43637,-0.026 -12.61756,7.28049 -10.19809,14.38123 0.67495,1.98087 3.25311,4.95228 5.12582,5.90766 3.13743,1.6006 6.605,1.6464 9.72986,0.1285 z"
       id="path4509"
       inkscape:connector-curvature="0" />
    <path
       style="fill:#ffffff;stroke-width:0.35277778"
       d="m 71.987141,155.68933 c -3.50949,-0.73413 -6.96872,-3.77575 -8.072046,-7.09756 -0.791902,-2.38418 -0.585844,-5.93949 0.469981,-8.10913 2.572597,-5.2865 8.997548,-7.64393 14.207063,-5.21282 3.775047,1.7617 6.027706,5.06429 6.266557,9.18731 0.186923,3.22662 -0.602802,5.44883 -2.784877,7.83636 -2.630953,2.87869 -6.435601,4.15958 -10.086678,3.39584 z m 34.869439,-0.20015 c -4.96091,-1.33505 -8.027524,-5.39326 -7.980957,-10.56159 0.02628,-2.91593 0.845717,-5.02237 2.791777,-7.17643 4.13542,-4.57741 11.75597,-4.57741 15.89139,0 1.94606,2.15406 2.76551,4.2605 2.79178,7.17643 0.0464,5.14702 -3.12888,9.27587 -8.13661,10.58022 -2.44557,0.63699 -2.92739,0.63531 -5.35738,-0.0186 z m 35.82395,0.18619 c -2.23357,-0.55838 -3.96775,-1.63347 -5.64621,-3.50032 -6.20251,-6.89869 -1.26595,-17.8455 8.03294,-17.81303 3.32415,0.0116 5.6273,1.04944 7.93686,3.57647 3.76979,4.12475 3.8235,10.09078 0.12785,14.20123 -2.6514,2.949 -6.96328,4.40768 -10.45144,3.53565 z"
       id="path4511"
       inkscape:connector-curvature="0"
       sodipodi:nodetypes="ccscscccccccscccscscc" />
  </g>
</svg>
